:SAMPLES-PER-SECOND 30
:FRAME-RANGE 1-4244
:FULLY-SPECIFIED
:DEGREES
4112
root  22.0771 38.5126 -0.849026 174.89 9.54997 176.131
RightUpLeg  21.0389 -7.10352 -9.34741
RightLeg  16.2397 -0.776971 -0.60081
RightFoot  -18.995 1.06064 17.6662
RightToes  -3.31784e-009 0 -3.6325e-017
Spine  7.55539 0.947726 -2.7495
Spine1  1.20187 1.42505 -3.40835
HEad  -7.51532 6.35284 -4.05764
LeftShoulder1  1.46421 -0.145012 -34.0629
LeftArm  24.7118 11.6109 -28.9656
LeftForeArm  -0.953654 -8.08159 -17.189
LeftHand  0.338392 -0.6328 -6.49348
RightShoulder  7.7564 10.6226 48.0905
RightArm  9.35129 1.69693 16.359
RightForeArm  14.5198 5.7808 15.3226
RightHand  0.31066 4.47371 3.36563
LeftUpLeg  -17.588 8.05161 -5.51583
LeftLeg  11.6214 8.3132 -0.367767
LeftFoot  9.24407 -0.776727 3.96455
LeftToes  1.0277e-010 -6.71454e-011 3.04227e-011
4113
root  22.0069 38.5222 -2.17383 174.537 10.3703 174.935
RightUpLeg  17.1637 -4.888 -11.1964
RightLeg  26.7646 -0.696783 -0.606511
RightFoot  -14.8015 0.684722 25.625
RightToes  -3.31784e-009 0 -3.6325e-017
Spine  8.03687 1.33159 -3.41855
Spine1  0.783089 1.87923 -5.44027
HEad  -6.04816 6.49608 -4.12171
LeftShoulder1  1.55399 -0.330159 -34.4637
LeftArm  24.0608 9.65306 -28.1892
LeftForeArm  -2.63615 -5.48059 -18.4709
LeftHand  0.302548 -0.0302428 -6.52665
RightShoulder  8.00877 10.9913 48.3928
RightArm  2.89019 0.844498 16.9968
RightForeArm  19.1578 -0.609382 16.1678
RightHand  0.304626 4.27556 3.37573
LeftUpLeg  -17.1307 11.4332 -7.36647
LeftLeg  15.2999 5.88456 0.0182249
LeftFoot  5.33519 -0.591541 3.81335
LeftToes  1.0277e-010 -6.71454e-011 3.04227e-011
4114
root  21.8845 38.6812 -3.44127 174.434 12.1332 174.384
RightUpLeg  10.1007 -2.38524 -12.2408
RightLeg  39.7613 -1.5701 -1.67321
RightFoot  -4.72594 -1.58386 26.3958
RightToes  -3.31784e-009 0 -3.6325e-017
Spine  8.47101 1.74543 -3.10996
Spine1  0.204094 2.42273 -7.16972
HEad  -5.13692 7.41514 -5.43792
LeftShoulder1  1.59799 -0.433975 -34.5134
LeftArm  22.7447 8.21653 -28.3955
LeftForeArm  -2.16559 -3.77638 -19.0011
LeftHand  0.267199 0.333168 -6.23337
RightShoulder  8.42762 11.9399 47.7828
RightArm  2.70059 0.136213 18.41
RightForeArm  18.7744 -4.71385 16.5843
RightHand  0.365135 3.95741 4.26309
LeftUpLeg  -15.4311 10.197 -7.30658
LeftLeg  16.347 8.79804 0.331003
LeftFoot  2.783 -0.517225 4.03724
LeftToes  1.0277e-010 -6.71454e-011 3.04227e-011
4115
root  21.8521 38.8383 -4.6918 174.096 13.7157 173.91
RightUpLeg  2.30804 0.278641 -12.2189
RightLeg  51.5531 -3.18082 -4.65543
RightFoot  9.71931 -2.87406 15.7357
RightToes  -3.31784e-009 0 -3.6325e-017
Spine  8.77749 1.90168 -3.92055
Spine1  0.0897042 2.45598 -7.25694
HEad  -5.52975 8.94417 -7.11192
LeftShoulder1  1.60848 -0.465065 -34.4611
LeftArm  22.4543 7.16109 -28.6976
LeftForeArm  -1.25794 -4.13387 -18.812
LeftHand  0.276285 0.234991 -6.30625
RightShoulder  8.8293 12.7083 47.68
RightArm  6.3012 0.142065 19.3678
RightForeArm  18.4393 -5.44331 17.076
RightHand  0.541276 4.10541 6.33318
LeftUpLeg  -13.3252 9.80394 -7.34427
LeftLeg  17.0169 10.6946 0.613162
LeftFoot  0.239497 -0.340802 3.34579
LeftToes  1.0277e-010 -6.71454e-011 3.04227e-011
4116
root  21.8792 38.8985 -5.84414 173.382 14.5757 173.537
RightUpLeg  -3.12052 1.96838 -12.3108
RightLeg  59.4884 -2.75543 -5.52487
RightFoot  9.20362 -2.50067 14.0863
RightToes  -3.31784e-009 0 -3.6325e-017
Spine  9.29372 1.8562 -5.53139
Spine1  0.605458 1.97059 -6.67955
HEad  -6.07056 10.2991 -8.2887
LeftShoulder1  1.6572 -0.585857 -34.4573
LeftArm  26.3953 5.83206 -29.1331
LeftForeArm  -3.27357 -6.21732 -18.3207
LeftHand  0.27198 0.104033 -6.03624
RightShoulder  8.90924 12.8139 47.8013
RightArm  8.0827 0.00158099 19.9313
RightForeArm  22.2623 -3.92757 16.9602
RightHand  0.759234 4.97167 8.17671
LeftUpLeg  -11.0523 9.26367 -7.25064
LeftLeg  17.9175 12.1324 0.560075
LeftFoot  -2.25735 -0.227901 3.04013
LeftToes  1.0277e-010 -6.71454e-011 3.04227e-011
4117
root  21.9372 39.007 -7.0116 172.88 14.3585 174.032
RightUpLeg  -7.31704 2.04473 -11.6947
RightLeg  63.7459 -2.15086 -5.32198
RightFoot  5.42997 -2.16563 14.8694
RightToes  -3.31784e-009 0 -3.6325e-017
Spine  9.55218 1.2936 -6.55745
Spine1  1.1578 0.957498 -5.61066
HEad  -6.42613 11.1713 -9.14565
LeftShoulder1  1.72888 -0.779184 -34.3067
LeftArm  30.9323 3.96693 -29.7818
LeftForeArm  -5.28259 -7.88628 -17.8667
LeftHand  0.230156 -0.195678 -4.7982
RightShoulder  8.54693 12.1453 47.8223
RightArm  12.9923 -0.512095 20.5075
RightForeArm  21.4306 0.332692 16.8914
RightHand  0.835395 5.36968 8.66561
LeftUpLeg  -8.44401 8.67628 -6.60244
LeftLeg  18.1907 12.496 0.29827
LeftFoot  -4.32328 -0.150953 2.88661
LeftToes  1.0277e-010 -6.71454e-011 3.04227e-011
4118
root  22.0131 39.1211 -8.19042 172.854 13.2345 174.852
RightUpLeg  -11.1114 0.852612 -10.6438
RightLeg  64.7957 -1.95513 -5.13853
RightFoot  4.55481 -1.77739 12.9054
RightToes  -3.31784e-009 0 -3.6325e-017
Spine  9.41179 0.420633 -7.52022
Spine1  1.41305 -0.369987 -3.92331
HEad  -6.0789 11.5972 -9.35711
LeftShoulder1  1.80822 -1.01349 -33.9771
LeftArm  34.1677 1.58665 -30.766
LeftForeArm  -6.70646 -8.76467 -17.6267
LeftHand  0.213249 -0.261615 -4.38437
RightShoulder  7.97733 11.2399 47.3754
RightArm  20.5653 -1.63971 21.365
RightForeArm  15.1748 5.80085 16.0993
RightHand  0.791971 5.34301 8.22266
LeftUpLeg  -6.11405 8.38653 -5.93293
LeftLeg  18.1581 11.5436 -0.0364008
LeftFoot  -6.16901 -0.0834226 2.66952
LeftToes  1.0277e-010 -6.71454e-011 3.04227e-011
4119
root  22.1011 39.2496 -9.37171 172.868 11.9324 175.583
RightUpLeg  -14.0953 -0.693765 -9.556
RightLeg  62.8305 -2.83986 -6.54957
RightFoot  2.88078 -1.65017 13.3312
RightToes  -3.31784e-009 0 -3.6325e-017
Spine  9.21951 -0.379581 -8.27685
Spine1  1.4437 -1.5016 -2.28039
HEad  -5.19517 11.604 -8.88613
LeftShoulder1  1.88081 -1.25312 -33.4949
LeftArm  35.2208 -1.332 -31.9765
LeftForeArm  -6.74146 -8.82171 -17.6409
LeftHand  0.191859 -0.245128 -3.95568
RightShoulder  7.38857 10.2678 46.9744
RightArm  27.2204 -2.93072 22.0038
RightForeArm  8.44717 10.4822 14.3903
RightHand  0.700993 5.27464 7.29584
LeftUpLeg  -3.48332 8.12767 -5.27551
LeftLeg  17.3171 10.5414 -0.595119
LeftFoot  -7.61466 -0.038316 2.58648
LeftToes  1.0277e-010 -6.71454e-011 3.04227e-011
